<svg width="34" height="32" viewBox="0 0 34 32" fill="none" xmlns="http://www.w3.org/2000/svg">
<path d="M23.6367 3.44106C23.4578 2.28487 22.3867 1.41293 21.1453 1.41293H12.8546C11.6131 1.41293 10.542 2.28487 10.3631 3.44112L9.92578 6.26756H12.0039L12.398 3.72C12.4308 3.50812 12.6271 3.34837 12.8546 3.34837H21.1453C21.3728 3.34837 21.5691 3.50818 21.6018 3.72L21.9959 6.2675H24.0741L23.6367 3.44106Z" fill="white"/>
<path d="M30.3111 20.3629H21.4087V21.4926C21.4087 21.8501 21.1994 22.1783 20.8644 22.3465L17.4839 24.0433C17.3327 24.1191 17.1664 24.1571 17 24.1571C16.8337 24.1571 16.6673 24.1192 16.5161 24.0433L13.1356 22.3465C12.8005 22.1783 12.5913 21.8501 12.5913 21.4926V20.3629H3.68893C2.28564 20.3629 0.998816 19.8863 0 19.0969V29.3994C0 30.0543 0.566113 30.5871 1.26198 30.5871H32.738C33.4338 30.5871 34 30.0543 34 29.3994V19.0969C33.0011 19.8863 31.7143 20.3629 30.3111 20.3629Z" fill="white"/>
<path d="M32.738 8.20294H1.26198C0.566113 8.20294 0 8.73582 0 9.39069V14.9555C0 16.8699 1.65484 18.4274 3.68893 18.4274H12.5913V16.7323C12.5913 16.1978 13.0517 15.7645 13.6195 15.7645H20.3805C20.9484 15.7645 21.4088 16.1978 21.4088 16.7323V18.4274H30.3111C32.3452 18.4274 34 16.8699 34 14.9555V9.39069C34 8.73582 33.4339 8.20294 32.738 8.20294Z" fill="white"/>
<path d="M14.6479 17.7001V20.912L17.0002 22.0927L19.3524 20.912V17.7001H14.6479Z" fill="white"/>
</svg>
