<svg width="32" height="38" viewBox="0 0 32 38" fill="none" xmlns="http://www.w3.org/2000/svg">
<path d="M30.3604 26.497C27.9916 24.4948 26.6333 21.5683 26.6333 18.4679V14.1C26.6333 8.5869 22.5381 4.0232 17.2333 3.25867V1.56667C17.2333 0.7003 16.5315 0 15.6667 0C14.8019 0 14.1 0.7003 14.1 1.56667V3.25867C8.7937 4.0232 4.7 8.5869 4.7 14.1V18.4679C4.7 21.5683 3.3417 24.4948 0.9588 26.5096C0.349367 27.0313 0 27.7895 0 28.5917C0 30.1035 1.22983 31.3333 2.74167 31.3333H28.5917C30.1035 31.3333 31.3333 30.1035 31.3333 28.5917C31.3333 27.7895 30.984 27.0313 30.3604 26.497Z" fill="white"/>
<path d="M15.6666 37.6C18.5038 37.6 20.8773 35.5774 21.4225 32.9H9.91064C10.4558 35.5774 12.8293 37.6 15.6666 37.6Z" fill="white"/>
</svg>
