<svg width="91" height="47" viewBox="0 0 91 47" fill="none" xmlns="http://www.w3.org/2000/svg">
<path d="M20.8811 14.4303C20.8811 15.6444 20.8811 15.7864 21.0576 17.0264C21.1526 17.6336 21.2612 18.1759 21.4106 18.7313C21.9129 20.656 22.5646 22.1151 23.5285 23.82C23.6099 23.9494 23.6371 24.0267 23.7185 24.1431L24.3159 25.1118C24.4652 25.3185 24.5874 25.5249 24.7367 25.7445C24.8725 25.9253 25.0354 26.158 25.2255 26.2743C26.1894 26.8682 27.5742 26.3518 27.5742 25.37C27.5742 24.9954 27.5742 24.8535 27.4248 24.4917C27.3841 24.3883 27.3434 24.285 27.3027 24.1946L26.8139 23.42C26.746 23.3167 26.7189 23.2517 26.6646 23.1484C26.2166 22.4642 25.6735 21.3276 25.402 20.6299C25.2391 20.2296 25.1033 19.8292 24.954 19.4029C24.696 18.7055 24.4109 17.4526 24.3159 16.6906C24.2616 16.2127 24.1937 15.6833 24.1937 15.1666C24.1937 14.8436 24.153 14.6758 24.1937 14.3917C24.2073 14.2754 24.1937 14.1075 24.1937 13.9784C24.1937 13.3971 24.3838 12.002 24.5331 11.4079C24.7367 10.5684 24.8182 10.2842 25.1169 9.48341C25.1848 9.27675 25.2798 9.09593 25.3613 8.88927C25.6056 8.21764 26.4338 6.80979 26.8682 6.18982C27.2076 5.69901 27.357 5.51819 27.357 4.83364C27.357 4.07159 26.6917 3.41287 25.9043 3.41287C24.8861 3.41287 24.3159 3.77452 23.8136 4.5624C23.6778 4.78198 23.5828 4.9628 23.4606 5.19529C23.3927 5.31153 23.352 5.37611 23.2841 5.50527C22.6053 6.80979 22.1165 7.90765 21.6685 9.34133C21.5871 9.59965 21.5328 9.85798 21.4649 10.1163C21.1662 11.2012 21.0983 11.9116 20.949 13.0224C20.8949 13.3711 20.8811 14.0815 20.8811 14.4303Z" fill="white"/>
<path d="M66.1984 14.4561C66.1984 15.4248 66.0898 16.8326 65.8728 17.7368C65.4246 19.5838 65.2886 19.9585 64.515 21.6762C64.3385 22.0636 64.1077 22.4897 63.9041 22.8386C63.7954 23.0194 63.6872 23.1871 63.5784 23.394C63.5239 23.4844 63.4562 23.5748 63.4015 23.6652C62.9673 24.3629 62.3837 25.396 63.1847 26.158C63.7411 26.6874 64.7999 26.6874 65.4653 25.9772C65.5468 25.8739 65.628 25.7445 65.6959 25.6412C65.859 25.4218 65.9946 25.2022 66.1441 24.9696C66.7824 24.0527 67.6377 22.3864 68.0723 21.366C69.036 19.0542 69.5112 16.626 69.5112 14.0686C69.5112 12.7641 69.1039 10.4005 68.6561 9.13468C68.4796 8.64388 68.3165 8.19182 68.1264 7.71392L66.8638 5.09197C66.443 4.29118 66.2392 3.94244 65.4108 3.56788C64.5962 3.20623 63.687 3.39997 63.266 4.0716C62.9943 4.51075 62.9264 5.1178 63.1709 5.62153C63.361 6.02192 63.9855 6.86147 64.311 7.4556C65.5198 9.67716 66.1984 11.8858 66.1984 14.4561Z" fill="white"/>
<path d="M61.9766 14.6627C61.9766 15.9543 61.7456 17.2074 61.3383 18.3957C61.2706 18.5765 61.2161 18.6925 61.1618 18.8734C61.0532 19.1964 60.9173 19.4417 60.7817 19.7517C60.6048 20.1133 60.6048 20.0746 60.4557 20.3587C60.4147 20.4231 60.388 20.5006 60.3471 20.5785C59.9807 21.1853 59.0573 22.3349 59.831 22.9936C60.1706 23.2777 60.7408 23.3421 61.1752 23.084C61.3517 22.9807 61.4465 22.8642 61.5553 22.6965C61.6639 22.5417 61.759 22.4253 61.8676 22.2575L62.1661 21.7797C62.2066 21.7022 62.2611 21.6374 62.3016 21.5599L62.7089 20.8237C62.9126 20.4877 63.0621 20.1393 63.2248 19.7904C64.2972 17.4655 64.6639 14.8308 64.1207 12.2862C63.8899 11.2013 63.5235 10.0388 63.0483 9.04427C62.8583 8.65679 62.7902 8.46306 62.5596 8.06266C62.3831 7.73976 62.2336 7.44269 62.0028 7.17145C61.8401 7.00354 61.2836 6.69356 60.9849 6.69356C60.4962 6.69356 60.1025 6.74522 59.8306 7.23603C59.3554 8.07557 60.1975 8.77304 60.6454 9.63841C61.0391 10.4005 60.9985 10.323 61.3242 11.0979C61.732 12.0925 61.9766 13.5392 61.9766 14.6627Z" fill="white"/>
<path d="M26.0266 14.5982C26.0266 15.9414 26.0945 16.4453 26.4203 17.6724C26.7054 18.7573 26.9634 19.3773 27.425 20.3589C27.4657 20.4364 27.5064 20.5137 27.5471 20.6041C27.6286 20.7979 27.8322 21.1339 27.9544 21.3276C28.1717 21.7276 28.8369 22.8773 29.2034 23.0969C30.0588 23.5748 31.5657 22.9032 30.4253 21.2243C30.371 21.1468 30.3439 21.108 30.3031 21.0435C29.9637 20.4877 29.5157 19.6354 29.2713 19.0415C28.8097 17.9178 28.416 16.2774 28.416 15.0762C28.416 13.2292 28.5382 12.4672 29.1899 10.7623C29.4071 10.1681 29.9773 9.18653 30.3439 8.65697C30.6154 8.26949 30.6833 8.15325 30.6833 7.70119C30.6833 7.32662 30.4117 6.99081 30.1131 6.80998C29.5972 6.52583 28.8369 6.77123 28.4568 7.08122C28.2395 7.24913 28.0223 7.7141 27.8866 7.95951C27.8458 8.037 27.8051 8.08867 27.7644 8.16617L27.1806 9.38027C26.4884 10.8527 26.0266 12.9966 26.0266 14.5982Z" fill="white"/>
<path d="M58.5593 11.1838C58.3421 10.3703 58.057 9.56933 57.6902 8.8202L57.2829 8.04524C57.0116 7.61901 56.8215 7.27028 56.4819 6.81822C56.0747 6.27592 55.0159 5.0489 54.5409 4.69981L54.4187 4.6094C54.1336 4.33816 53.93 4.20918 53.6313 3.97669C53.3053 3.73129 53.1697 3.66653 52.9118 3.48588L51.8664 2.87883C51.7578 2.82717 51.7035 2.7755 51.5811 2.72384C51.1469 2.54301 50.9704 2.42677 50.4409 2.22011C50.2373 2.14244 50.0472 2.07804 49.8436 2.00054C49.2053 1.76787 47.8343 1.44497 47.1555 1.36765C46.5715 1.30307 46.0422 1.26432 45.5261 1.25159H44.5215C43.6255 1.27742 42.743 1.4064 41.7112 1.65181C41.3584 1.74222 40.7611 1.91013 40.4351 2.02637C40.3264 2.06512 40.2314 2.09095 40.1364 2.1297C40.0413 2.18137 39.9463 2.22011 39.8377 2.25886C39.3761 2.43969 38.5751 2.80115 38.168 3.05965L36.4574 4.20918C35.9687 4.6094 35.8465 4.69981 35.3442 5.17771C35.0862 5.42329 34.2581 6.34015 34.0135 6.68906C33.9458 6.79221 33.9051 6.85715 33.837 6.94738C33.7827 7.02488 33.7284 7.07636 33.6743 7.16695C32.683 8.71688 32.2759 9.56934 31.8006 11.3776C31.5698 12.2171 31.4612 13.2246 31.4612 14.2708C31.4612 15.8465 31.692 17.1123 32.1809 18.5072C32.3301 18.9205 32.493 19.2951 32.6697 19.6695C33.2397 20.8709 33.7827 21.6455 34.638 22.6662C35.0996 23.2345 35.5883 23.6349 36.1041 24.0995L36.5523 24.4615C38.2357 25.714 39.9054 26.5281 42.0097 27.0189C43.4624 27.3545 45.3496 27.4839 46.9243 27.2641C47.4266 27.1997 47.9289 27.1348 48.3634 27.0189C49.8025 26.6829 50.9836 26.2439 52.2462 25.5203C52.9521 25.1202 54.1061 24.3193 54.6627 23.7768C54.7442 23.6993 54.7985 23.6478 54.8798 23.5701C55.2194 23.2474 55.5722 22.8985 55.8708 22.5369C56.3053 21.9942 56.7399 21.4646 57.0927 20.8579C57.7851 19.6309 58.1924 18.7914 58.5591 17.4094C59.0612 15.4851 59.075 13.1212 58.5593 11.1838ZM51.4454 15.7563C51.1738 16.8025 50.6715 17.6289 49.9384 18.4299C49.8975 18.4814 49.8975 18.4687 49.8568 18.5203L49.341 18.9724C48.8928 19.3082 48.4314 19.644 47.9018 19.8507C47.1417 20.1476 46.4084 20.4062 45.3223 20.4062C44.0599 20.4062 43.0956 20.1865 42.0233 19.6184C41.6296 19.4117 41.0186 18.9855 40.6928 18.6753C40.5571 18.5462 40.4756 18.4301 40.3398 18.3008C40.0138 17.9908 39.7832 17.5904 39.5524 17.2158C39.1721 16.5829 38.7786 15.5109 38.7786 14.6197C38.7786 13.4958 38.8736 12.6434 39.3895 11.6619C39.5931 11.2744 40.0002 10.6286 40.2989 10.3186L40.6792 9.93116C40.9372 9.69885 41.2087 9.4791 41.5074 9.28536C41.6024 9.23369 41.6433 9.19495 41.7384 9.14328C41.8334 9.09162 41.8877 9.05287 41.9827 9.00121C44.1142 7.7871 46.8566 7.95501 48.9066 9.29828C49.0695 9.40161 49.1917 9.50493 49.3412 9.62118C49.6671 9.86658 50.2237 10.4349 50.4681 10.7965C50.5224 10.8611 50.5631 10.9259 50.6174 11.0032L50.726 11.1711C51.5675 12.4369 51.8391 14.2708 51.4454 15.7563Z" fill="#E22128"/>
</svg>
